# Made in Blockbench 4.9.4
mtllib agtrailos.mtl

o rail
v 1.4375 0.0625 0.5
v 1.4375 0.0625 -0.5
v 1.4375 0 0.5
v 1.4375 0 -0.5
v -1.4375 0.0625 -0.5
v -1.4375 0.0625 0.5
v -1.4375 0 -0.5
v -1.4375 0 0.5
vt 0 1
vt 0.4375 1
vt 0.4375 0.5
vt 0 0.5
vt 0 1
vt 0.4375 1
vt 0.4375 0.5
vt 0 0.5
vt 0 1
vt 0.4375 1
vt 0.4375 0.5
vt 0 0.5
vt 0 1
vt 0.4375 1
vt 0.4375 0.5
vt 0 0.5
vt 0 1
vt 0.4375 1
vt 0.4375 0.5
vt 0 0.5
vt 0 1
vt 0.4375 1
vt 0.4375 0.5
vt 0 0.5
vn 0 0 -1
vn 1 0 0
vn 0 0 1
vn -1 0 0
vn 0 1 0
vn 0 -1 0
usemtl m_a44e9d73-1b54-2297-e78b-a8e9d04e6066
f 4/4/1 7/3/1 5/2/1 2/1/1
f 3/8/2 4/7/2 2/6/2 1/5/2
f 8/12/3 3/11/3 1/10/3 6/9/3
f 7/16/4 8/15/4 6/14/4 5/13/4
f 6/20/5 1/19/5 2/18/5 5/17/5
f 7/24/6 4/23/6 3/22/6 8/21/6
o rail
v 1.3125 0.09375 0.5
v 1.3125 0.09375 -0.5
v 1.3125 0.0625 0.5
v 1.3125 0.0625 -0.5
v -1.3125 0.09375 -0.5
v -1.3125 0.09375 0.5
v -1.3125 0.0625 -0.5
v -1.3125 0.0625 0.5
vt 0.5625 1
vt 1 1
vt 1 0.5
vt 0.5625 0.5
vt 0.5625 1
vt 1 1
vt 1 0.5
vt 0.5625 0.5
vt 0.5625 1
vt 1 1
vt 1 0.5
vt 0.5625 0.5
vt 0.5625 1
vt 1 1
vt 1 0.5
vt 0.5625 0.5
vt 0 1
vt 1 1
vt 1 0.5
vt 0 0.5
vt 0.5625 1
vt 1 1
vt 1 0.5
vt 0.5625 0.5
vn 0 0 -1
vn 1 0 0
vn 0 0 1
vn -1 0 0
vn 0 1 0
vn 0 -1 0
usemtl m_a44e9d73-1b54-2297-e78b-a8e9d04e6066
f 12/28/7 15/27/7 13/26/7 10/25/7
f 11/32/8 12/31/8 10/30/8 9/29/8
f 16/36/9 11/35/9 9/34/9 14/33/9
f 15/40/10 16/39/10 14/38/10 13/37/10
f 14/44/11 9/43/11 10/42/11 13/41/11
f 15/48/12 12/47/12 11/46/12 16/45/12
o rail
v -0.53125 0.1875 0.5
v -0.53125 0.1875 -0.5
v -0.53125 0.09375 0.5
v -0.53125 0.09375 -0.5
v -0.90625 0.1875 -0.5
v -0.90625 0.1875 0.5
v -0.90625 0.09375 -0.5
v -0.90625 0.09375 0.5
vt 0.78125 0.5
vt 1 0.5
vt 1 0
vt 0.78125 0
vt 0.96875 0.5
vt 1 0.5
vt 1 0
vt 0.96875 0
vt 0.78125 0.5
vt 1 0.5
vt 1 0
vt 0.78125 0
vt 0.78125 0.5
vt 0.8125 0.5
vt 0.8125 0
vt 0.78125 0
vt 0.78125 0.5
vt 1 0.5
vt 1 0
vt 0.78125 0
vt 0.78125 0.5
vt 1 0.5
vt 1 0
vt 0.78125 0
vn 0 0 -1
vn 1 0 0
vn 0 0 1
vn -1 0 0
vn 0 1 0
vn 0 -1 0
usemtl m_a44e9d73-1b54-2297-e78b-a8e9d04e6066
f 20/52/13 23/51/13 21/50/13 18/49/13
f 19/56/14 20/55/14 18/54/14 17/53/14
f 24/60/15 19/59/15 17/58/15 22/57/15
f 23/64/16 24/63/16 22/62/16 21/61/16
f 22/68/17 17/67/17 18/66/17 21/65/17
f 23/72/18 20/71/18 19/70/18 24/69/18
o rail
v 0.90625 0.1875 0.5
v 0.90625 0.1875 -0.5
v 0.90625 0.09375 0.5
v 0.90625 0.09375 -0.5
v 0.53125 0.1875 -0.5
v 0.53125 0.1875 0.5
v 0.53125 0.09375 -0.5
v 0.53125 0.09375 0.5
vt 0.78125 0.5
vt 1 0.5
vt 1 0
vt 0.78125 0
vt 0.96875 0.5
vt 1 0.5
vt 1 0
vt 0.96875 0
vt 0.78125 0.5
vt 1 0.5
vt 1 0
vt 0.78125 0
vt 0.78125 0.5
vt 0.8125 0.5
vt 0.8125 0
vt 0.78125 0
vt 0.78125 0.5
vt 1 0.5
vt 1 0
vt 0.78125 0
vt 0.78125 0.5
vt 1 0.5
vt 1 0
vt 0.78125 0
vn 0 0 -1
vn 1 0 0
vn 0 0 1
vn -1 0 0
vn 0 1 0
vn 0 -1 0
usemtl m_a44e9d73-1b54-2297-e78b-a8e9d04e6066
f 28/76/19 31/75/19 29/74/19 26/73/19
f 27/80/20 28/79/20 26/78/20 25/77/20
f 32/84/21 27/83/21 25/82/21 30/81/21
f 31/88/22 32/87/22 30/86/22 29/85/22
f 30/92/23 25/91/23 26/90/23 29/89/23
f 31/96/24 28/95/24 27/94/24 32/93/24
o rail
v 0.09375 0.171875 0.5
v 0.09375 0.171875 -0.5
v 0.09375 0.09375 0.5
v 0.09375 0.09375 -0.5
v -0.09375 0.171875 -0.5
v -0.09375 0.171875 0.5
v -0.09375 0.09375 -0.5
v -0.09375 0.09375 0.5
vt 0.03125 0.5
vt 0.15625 0.5
vt 0.15625 0
vt 0.03125 0
vt 0.15625 0
vt 0.15625 0.5
vt 0.1875 0.5
vt 0.1875 0
vt 0.03125 0.5
vt 0.15625 0.5
vt 0.15625 0
vt 0.03125 0
vt 0 0.5
vt 0 0
vt 0.03125 0
vt 0.03125 0.5
vt 0 0.5
vt 0.1875 0.5
vt 0.1875 0
vt 0 0
vt 0 0.5
vt 0.1875 0.5
vt 0.1875 0
vt 0 0
vn 0 0 -1
vn 1 0 0
vn 0 0 1
vn -1 0 0
vn 0 1 0
vn 0 -1 0
usemtl m_a44e9d73-1b54-2297-e78b-a8e9d04e6066
f 36/100/25 39/99/25 37/98/25 34/97/25
f 35/104/26 36/103/26 34/102/26 33/101/26
f 40/108/27 35/107/27 33/106/27 38/105/27
f 39/112/28 40/111/28 38/110/28 37/109/28
f 38/116/29 33/115/29 34/114/29 37/113/29
f 39/120/30 36/119/30 35/118/30 40/117/30
o rail
v -0.5 0.171875 0.5
v -0.5 0.171875 -0.5
v -0.5 0.09375 0.5
v -0.5 0.09375 -0.5
v -0.9375 0.171875 -0.5
v -0.9375 0.171875 0.5
v -0.9375 0.09375 -0.5
v -0.9375 0.09375 0.5
vt 0.78125 1
vt 1 1
vt 1 0.5
vt 0.78125 0.5
vt 0.96875 1
vt 1 1
vt 1 0.5
vt 0.96875 0.5
vt 0.78125 1
vt 1 1
vt 1 0.5
vt 0.78125 0.5
vt 0.78125 1
vt 0.8125 1
vt 0.8125 0.5
vt 0.78125 0.5
vt 0.78125 1
vt 1 1
vt 1 0.5
vt 0.78125 0.5
vt 0.78125 1
vt 1 1
vt 1 0.5
vt 0.78125 0.5
vn 0 0 -1
vn 1 0 0
vn 0 0 1
vn -1 0 0
vn 0 1 0
vn 0 -1 0
usemtl m_a44e9d73-1b54-2297-e78b-a8e9d04e6066
f 44/124/31 47/123/31 45/122/31 42/121/31
f 43/128/32 44/127/32 42/126/32 41/125/32
f 48/132/33 43/131/33 41/130/33 46/129/33
f 47/136/34 48/135/34 46/134/34 45/133/34
f 46/140/35 41/139/35 42/138/35 45/137/35
f 47/144/36 44/143/36 43/142/36 48/141/36
o rail
v 0.9375 0.171875 0.5
v 0.9375 0.171875 -0.5
v 0.9375 0.09375 0.5
v 0.9375 0.09375 -0.5
v 0.5 0.171875 -0.5
v 0.5 0.171875 0.5
v 0.5 0.09375 -0.5
v 0.5 0.09375 0.5
vt 0.78125 1
vt 1 1
vt 1 0.5
vt 0.78125 0.5
vt 0.96875 1
vt 1 1
vt 1 0.5
vt 0.96875 0.5
vt 0.78125 1
vt 1 1
vt 1 0.5
vt 0.78125 0.5
vt 0.78125 1
vt 0.8125 1
vt 0.8125 0.5
vt 0.78125 0.5
vt 0.78125 1
vt 1 1
vt 1 0.5
vt 0.78125 0.5
vt 0.78125 1
vt 1 1
vt 1 0.5
vt 0.78125 0.5
vn 0 0 -1
vn 1 0 0
vn 0 0 1
vn -1 0 0
vn 0 1 0
vn 0 -1 0
usemtl m_a44e9d73-1b54-2297-e78b-a8e9d04e6066
f 52/148/37 55/147/37 53/146/37 50/145/37
f 51/152/38 52/151/38 50/150/38 49/149/38
f 56/156/39 51/155/39 49/154/39 54/153/39
f 55/160/40 56/159/40 54/158/40 53/157/40
f 54/164/41 49/163/41 50/162/41 53/161/41
f 55/168/42 52/167/42 51/166/42 56/165/42
o rail
v -0.9718749999999985 0.390625 0.5
v -0.9718749999999985 0.390625 -0.5
v -0.9718749999999985 0.3125 0.5
v -0.9718749999999985 0.3125 -0.5
v -1.0499999999999983 0.390625 0.5
v -1.0499999999999983 0.390625 -0.5
v -1.0499999999999983 0.3125 0.5
v -1.0499999999999983 0.3125 -0.5
v -1.0369791666666648 0.384375 -0.5
v -1.0369791666666648 0.31875 -0.5
v -1.0239583333333322 0.38125 -0.5
v -1.0239583333333322 0.321875 -0.5
v -1.0109374999999985 0.38125 -0.5
v -1.0109374999999985 0.321875 -0.5
v -0.9979166666666649 0.38125 -0.5
v -0.9979166666666649 0.321875 -0.5
v -0.984895833333332 0.384375 -0.5
v -0.984895833333332 0.3187499999999999 -0.5
v -1.0369791666666648 0.31875 0.5
v -1.0239583333333322 0.321875 0.5
v -1.0109374999999985 0.321875 0.5
v -0.9979166666666649 0.321875 0.5
v -0.984895833333332 0.3187499999999999 0.5
v -1.0369791666666648 0.384375 0.5
v -1.0239583333333322 0.38125 0.5
v -1.0109374999999985 0.38125 0.5
v -0.9979166666666649 0.38125 0.5
v -0.984895833333332 0.384375 0.5
vt 0.59375 0.5
vt 0.59375 0
vt 0.625 0
vt 0.625 0.5
vt 0.59375 0.5
vt 0.59375 0
vt 0.625 0
vt 0.625 0.5
vt 0.59375 0
vt 0.6093750000000002 0
vt 0.6093750000000002 0.5
vt 0.59375 0.5
vt 0.59375 0
vt 0.6093750000000002 0
vt 0.6093750000000002 0.5
vt 0.59375 0.5
vt 0.59375 0
vt 0.6093750000000002 0
vt 0.6093750000000002 0.5
vt 0.59375 0.5
vt 0.6875 0.5
vt 0.6718749999999998 0.5
vt 0.6718749999999998 0
vt 0.6875 0
vt 0.59375 0
vt 0.6093749999999999 0
vt 0.6093749999999999 0.5
vt 0.59375 0.5
vt 0.6093749999999999 0
vt 0.6249999999999998 0
vt 0.6249999999999998 0.5
vt 0.6093749999999999 0.5
vt 0.6249999999999998 0
vt 0.6406249999999998 0
vt 0.6406249999999998 0.5
vt 0.6249999999999998 0.5
vt 0.6406249999999998 0
vt 0.6562499999999998 0
vt 0.6562499999999998 0.5
vt 0.6406249999999998 0.5
vt 0.6562499999999998 0
vt 0.6718749999999998 0
vt 0.6718749999999998 0.5
vt 0.6562499999999998 0.5
vt 0.6875 0.5
vt 0.6718750000000001 0.5
vt 0.6718750000000001 0
vt 0.6875 0
vt 0.6718750000000001 0.5
vt 0.6562500000000002 0.5
vt 0.6562500000000002 0
vt 0.6718750000000001 0
vt 0.6562500000000002 0.5
vt 0.6406250000000002 0.5
vt 0.6406250000000002 0
vt 0.6562500000000002 0
vt 0.6406250000000002 0.5
vt 0.6250000000000002 0.5
vt 0.6250000000000002 0
vt 0.6406250000000002 0
vt 0.6250000000000002 0.5
vt 0.6093750000000002 0.5
vt 0.6093750000000002 0
vt 0.6250000000000002 0
vt 0.6875 0.5
vt 0.6718750000000001 0.5
vt 0.6718750000000001 0
vt 0.6875 0
vt 0.6718750000000001 0.5
vt 0.6562500000000002 0.5
vt 0.6562500000000002 0
vt 0.6718750000000001 0
vt 0.6562500000000002 0.5
vt 0.6406250000000002 0.5
vt 0.6406250000000002 0
vt 0.6562500000000002 0
vt 0.6406250000000002 0.5
vt 0.6250000000000002 0.5
vt 0.6250000000000002 0
vt 0.6406250000000002 0
vt 0.6250000000000002 0.5
vt 0.6093750000000002 0.5
vt 0.6093750000000002 0
vt 0.6250000000000002 0
vt 0.6875 0.5
vt 0.6718750000000001 0.5
vt 0.6718750000000001 0
vt 0.6875 0
vt 0.6718750000000001 0.5
vt 0.6562500000000002 0.5
vt 0.6562500000000002 0
vt 0.6718750000000001 0
vt 0.6406250000000002 0.5
vt 0.6250000000000002 0.5
vt 0.6250000000000002 0
vt 0.6406250000000002 0
vt 0.6250000000000002 0.5
vt 0.6093750000000002 0.5
vt 0.6093750000000002 0
vt 0.6250000000000002 0
vt 0.6562500000000002 0.5
vt 0.6406250000000002 0.5
vt 0.6406250000000002 0
vt 0.6562500000000002 0
vn 1 0 0
vn -1 0 0
vn -0.4327310675847661 0.9015230574682761 0
vn -0.43273106758476304 -0.9015230574682778 0
vn 0 0 1
vn 0 0 -1
vn 0 0 -1
vn 0 0 -1
vn 0 0 -1
vn 0 0 -1
vn 0 0 -1
vn 0.4327310675847661 -0.9015230574682761 0
vn 0.23337295247533987 -0.9723873019805137 0
vn 0 -1 0
vn 0 -1 0
vn -0.23337295247533815 -0.9723873019805142 0
vn 0 0 1
vn 0 0 1
vn 0 0 1
vn 0 0 1
vn 0 0 1
vn 0.4327310675847661 0.9015230574682761 0
vn 0.23337295247533987 0.9723873019805137 0
vn 0 1 0
vn -0.23337295247533427 0.9723873019805153 0
vn 0 1 0
usemtl m_a44e9d73-1b54-2297-e78b-a8e9d04e6066
f 60/169/43 58/170/43 57/171/43 59/172/43
f 63/173/44 61/174/44 62/175/44 64/176/44
f 58/177/45 73/178/45 84/179/45 57/180/45
f 59/181/46 79/182/46 74/183/46 60/184/46
f 57/185/47 84/186/47 79/187/47 59/188/47
f 60/189/48 74/190/48 73/191/48 58/192/48
f 62/193/49 65/194/49 66/195/49 64/196/49
f 65/197/50 67/198/50 68/199/50 66/200/50
f 67/201/51 69/202/51 70/203/51 68/204/51
f 69/205/52 71/206/52 72/207/52 70/208/52
f 71/209/53 73/210/53 74/211/53 72/212/53
f 64/213/54 66/214/54 75/215/54 63/216/54
f 66/217/55 68/218/55 76/219/55 75/220/55
f 68/221/56 70/222/56 77/223/56 76/224/56
f 70/225/57 72/226/57 78/227/57 77/228/57
f 72/229/58 74/230/58 79/231/58 78/232/58
f 63/233/59 75/234/59 80/235/59 61/236/59
f 75/237/60 76/238/60 81/239/60 80/240/60
f 76/241/61 77/242/61 82/243/61 81/244/61
f 77/245/62 78/246/62 83/247/62 82/248/62
f 78/249/63 79/250/63 84/251/63 83/252/63
f 61/253/64 80/254/64 65/255/64 62/256/64
f 80/257/65 81/258/65 67/259/65 65/260/65
f 82/261/66 83/262/66 71/263/66 69/264/66
f 83/265/67 84/266/67 73/267/67 71/268/67
f 81/269/68 82/270/68 69/271/68 67/272/68
o rail
v -1.0499999999999994 0.53125 0.0625
v -1.0499999999999994 0.53125 -0.0625
v -1.0499999999999994 0.0625 0.0625
v -1.0499999999999994 0.0625 -0.0625
v -1.1749999999999994 0.53125 -0.0625
v -1.1749999999999994 0.53125 0.0625
v -1.1749999999999994 0.0625 -0.0625
v -1.1749999999999994 0.0625 0.0625
vt 0.78125 0
vt 0.6875 0
vt 0.6875 0.5
vt 0.78125 0.5
vt 0.78125 0
vt 0.6875 0
vt 0.6875 0.5
vt 0.78125 0.5
vt 0.78125 0
vt 0.6875 0
vt 0.6875 0.5
vt 0.78125 0.5
vt 0.78125 0
vt 0.6875 0
vt 0.6875 0.5
vt 0.78125 0.5
vt 0.78125 0
vt 0.6875 0
vt 0.6875 0.5
vt 0.78125 0.5
vt 0.78125 0
vt 0.6875 0
vt 0.6875 0.5
vt 0.78125 0.5
vn 0 0 -1
vn 1 0 0
vn 0 0 1
vn -1 0 0
vn 0 1 0
vn 0 -1 0
usemtl m_a44e9d73-1b54-2297-e78b-a8e9d04e6066
f 88/276/69 91/275/69 89/274/69 86/273/69
f 87/280/70 88/279/70 86/278/70 85/277/70
f 92/284/71 87/283/71 85/282/71 90/281/71
f 91/288/72 92/287/72 90/286/72 89/285/72
f 90/292/73 85/291/73 86/290/73 89/289/73
f 91/296/74 88/295/74 87/294/74 92/293/74
o rail
v 1.05 0.390625 0.5
v 1.05 0.390625 -0.5
v 1.05 0.3125 0.5
v 1.05 0.3125 -0.5
v 0.9718750000000006 0.390625 0.5
v 0.9718750000000006 0.390625 -0.5
v 0.9718750000000006 0.3125 0.5
v 0.9718750000000006 0.3125 -0.5
v 0.9848958333333339 0.384375 -0.5
v 0.9848958333333339 0.31875 -0.5
v 0.9979166666666662 0.38125 -0.5
v 0.9979166666666662 0.321875 -0.5
v 1.0109374999999998 0.38125 -0.5
v 1.0109374999999998 0.321875 -0.5
v 1.0239583333333335 0.38125 -0.5
v 1.0239583333333335 0.321875 -0.5
v 1.0369791666666666 0.384375 -0.5
v 1.0369791666666666 0.3187499999999999 -0.5
v 0.9848958333333339 0.31875 0.5
v 0.9979166666666662 0.321875 0.5
v 1.0109374999999998 0.321875 0.5
v 1.0239583333333335 0.321875 0.5
v 1.0369791666666666 0.3187499999999999 0.5
v 0.9848958333333339 0.384375 0.5
v 0.9979166666666662 0.38125 0.5
v 1.0109374999999998 0.38125 0.5
v 1.0239583333333335 0.38125 0.5
v 1.0369791666666666 0.384375 0.5
vt 0.59375 0.5
vt 0.59375 0
vt 0.625 0
vt 0.625 0.5
vt 0.59375 0.5
vt 0.59375 0
vt 0.625 0
vt 0.625 0.5
vt 0.59375 0
vt 0.6093750000000002 0
vt 0.6093750000000002 0.5
vt 0.59375 0.5
vt 0.59375 0
vt 0.6093750000000002 0
vt 0.6093750000000002 0.5
vt 0.59375 0.5
vt 0.59375 0
vt 0.6093750000000002 0
vt 0.6093750000000002 0.5
vt 0.59375 0.5
vt 0.6875 0.5
vt 0.6718749999999998 0.5
vt 0.6718749999999998 0
vt 0.6875 0
vt 0.59375 0
vt 0.6093749999999999 0
vt 0.6093749999999999 0.5
vt 0.59375 0.5
vt 0.6093749999999999 0
vt 0.6249999999999998 0
vt 0.6249999999999998 0.5
vt 0.6093749999999999 0.5
vt 0.6249999999999998 0
vt 0.6406249999999998 0
vt 0.6406249999999998 0.5
vt 0.6249999999999998 0.5
vt 0.6406249999999998 0
vt 0.6562499999999998 0
vt 0.6562499999999998 0.5
vt 0.6406249999999998 0.5
vt 0.6562499999999998 0
vt 0.6718749999999998 0
vt 0.6718749999999998 0.5
vt 0.6562499999999998 0.5
vt 0.6875 0.5
vt 0.6718750000000001 0.5
vt 0.6718750000000001 0
vt 0.6875 0
vt 0.6718750000000001 0.5
vt 0.6562500000000002 0.5
vt 0.6562500000000002 0
vt 0.6718750000000001 0
vt 0.6562500000000002 0.5
vt 0.6406250000000002 0.5
vt 0.6406250000000002 0
vt 0.6562500000000002 0
vt 0.6406250000000002 0.5
vt 0.6250000000000002 0.5
vt 0.6250000000000002 0
vt 0.6406250000000002 0
vt 0.6250000000000002 0.5
vt 0.6093750000000002 0.5
vt 0.6093750000000002 0
vt 0.6250000000000002 0
vt 0.6875 0.5
vt 0.6718750000000001 0.5
vt 0.6718750000000001 0
vt 0.6875 0
vt 0.6718750000000001 0.5
vt 0.6562500000000002 0.5
vt 0.6562500000000002 0
vt 0.6718750000000001 0
vt 0.6562500000000002 0.5
vt 0.6406250000000002 0.5
vt 0.6406250000000002 0
vt 0.6562500000000002 0
vt 0.6406250000000002 0.5
vt 0.6250000000000002 0.5
vt 0.6250000000000002 0
vt 0.6406250000000002 0
vt 0.6250000000000002 0.5
vt 0.6093750000000002 0.5
vt 0.6093750000000002 0
vt 0.6250000000000002 0
vt 0.6875 0.5
vt 0.6718750000000001 0.5
vt 0.6718750000000001 0
vt 0.6875 0
vt 0.6718750000000001 0.5
vt 0.6562500000000002 0.5
vt 0.6562500000000002 0
vt 0.6718750000000001 0
vt 0.6562500000000002 0.5
vt 0.6406250000000002 0.5
vt 0.6406250000000002 0
vt 0.6562500000000002 0
vt 0.6250000000000002 0.5
vt 0.6093750000000002 0.5
vt 0.6093750000000002 0
vt 0.6250000000000002 0
vt 0.6406250000000002 0.5
vt 0.6250000000000002 0.5
vt 0.6250000000000002 0
vt 0.6406250000000002 0
vn 1 0 0
vn -1 0 0
vn -0.4327310675847661 0.9015230574682761 0
vn -0.43273106758476304 -0.9015230574682778 0
vn 0 0 1
vn 0 0 -1
vn 0 0 -1
vn 0 0 -1
vn 0 0 -1
vn 0 0 -1
vn 0 0 -1
vn 0.4327310675847721 -0.9015230574682732 0
vn 0.23337295247534362 -0.9723873019805128 0
vn 0 -1 0
vn 0 -1 0
vn -0.23337295247533632 -0.9723873019805147 0
vn 0 0 1
vn 0 0 1
vn 0 0 1
vn 0 0 1
vn 0 0 1
vn 0.4327310675847721 0.9015230574682732 0
vn 0.23337295247534362 0.9723873019805128 0
vn 0 1 0
vn -0.23337295247533235 0.9723873019805155 0
vn 0 1 0
usemtl m_a44e9d73-1b54-2297-e78b-a8e9d04e6066
f 96/297/75 94/298/75 93/299/75 95/300/75
f 99/301/76 97/302/76 98/303/76 100/304/76
f 94/305/77 109/306/77 120/307/77 93/308/77
f 95/309/78 115/310/78 110/311/78 96/312/78
f 93/313/79 120/314/79 115/315/79 95/316/79
f 96/317/80 110/318/80 109/319/80 94/320/80
f 98/321/81 101/322/81 102/323/81 100/324/81
f 101/325/82 103/326/82 104/327/82 102/328/82
f 103/329/83 105/330/83 106/331/83 104/332/83
f 105/333/84 107/334/84 108/335/84 106/336/84
f 107/337/85 109/338/85 110/339/85 108/340/85
f 100/341/86 102/342/86 111/343/86 99/344/86
f 102/345/87 104/346/87 112/347/87 111/348/87
f 104/349/88 106/350/88 113/351/88 112/352/88
f 106/353/89 108/354/89 114/355/89 113/356/89
f 108/357/90 110/358/90 115/359/90 114/360/90
f 99/361/91 111/362/91 116/363/91 97/364/91
f 111/365/92 112/366/92 117/367/92 116/368/92
f 112/369/93 113/370/93 118/371/93 117/372/93
f 113/373/94 114/374/94 119/375/94 118/376/94
f 114/377/95 115/378/95 120/379/95 119/380/95
f 97/381/96 116/382/96 101/383/96 98/384/96
f 116/385/97 117/386/97 103/387/97 101/388/97
f 117/389/98 118/390/98 105/391/98 103/392/98
f 119/393/99 120/394/99 109/395/99 107/396/99
f 118/397/100 119/398/100 107/399/100 105/400/100
o rail
v 1.1749999999999994 0.53125 0.0625
v 1.1749999999999994 0.53125 -0.0625
v 1.1749999999999994 0.0625 0.0625
v 1.1749999999999994 0.0625 -0.0625
v 1.0499999999999994 0.53125 -0.0625
v 1.0499999999999994 0.53125 0.0625
v 1.0499999999999994 0.0625 -0.0625
v 1.0499999999999994 0.0625 0.0625
vt 0.78125 0
vt 0.6875 0
vt 0.6875 0.5
vt 0.78125 0.5
vt 0.78125 0
vt 0.6875 0
vt 0.6875 0.5
vt 0.78125 0.5
vt 0.78125 0
vt 0.6875 0
vt 0.6875 0.5
vt 0.78125 0.5
vt 0.78125 0
vt 0.6875 0
vt 0.6875 0.5
vt 0.78125 0.5
vt 0.78125 0
vt 0.6875 0
vt 0.6875 0.5
vt 0.78125 0.5
vt 0.78125 0
vt 0.6875 0
vt 0.6875 0.5
vt 0.78125 0.5
vn 0 0 -1
vn 1 0 0
vn 0 0 1
vn -1 0 0
vn 0 1 0
vn 0 -1 0
usemtl m_a44e9d73-1b54-2297-e78b-a8e9d04e6066
f 124/404/101 127/403/101 125/402/101 122/401/101
f 123/408/102 124/407/102 122/406/102 121/405/102
f 128/412/103 123/411/103 121/410/103 126/409/103
f 127/416/104 128/415/104 126/414/104 125/413/104
f 126/420/105 121/419/105 122/418/105 125/417/105
f 127/424/106 124/423/106 123/422/106 128/421/106
o rail
v -1.4375 0.9375 0.5
v -1.4375 0.9375 -0.5
v -1.4375 0 0.5
v -1.4375 0 -0.5
v -1.5 0.9375 -0.5
v -1.5 0.9375 0.5
v -1.5 0 -0.5
v -1.5 0 0.5
vt 0.6875 0.5
vt 0.78125 0.5
vt 0.78125 0
vt 0.6875 0
vt 0.6875 0.5
vt 0.78125 0.5
vt 0.78125 0
vt 0.6875 0
vt 0.6875 0.5
vt 0.78125 0.5
vt 0.78125 0
vt 0.6875 0
vt 0.6875 0.5
vt 0.78125 0.5
vt 0.78125 0
vt 0.6875 0
vt 0.6875 0.5
vt 0.78125 0.5
vt 0.78125 0
vt 0.6875 0
vt 0.6875 0.5
vt 0.78125 0.5
vt 0.78125 0
vt 0.6875 0
vn 0 0 -1
vn 1 0 0
vn 0 0 1
vn -1 0 0
vn 0 1 0
vn 0 -1 0
usemtl m_a44e9d73-1b54-2297-e78b-a8e9d04e6066
f 132/428/107 135/427/107 133/426/107 130/425/107
f 131/432/108 132/431/108 130/430/108 129/429/108
f 136/436/109 131/435/109 129/434/109 134/433/109
f 135/440/110 136/439/110 134/438/110 133/437/110
f 134/444/111 129/443/111 130/442/111 133/441/111
f 135/448/112 132/447/112 131/446/112 136/445/112