# Made in Blockbench 4.9.4
mtllib agtraillr.mtl

o rail
v 1.4375 0.0625 0.5
v 1.4375 0.0625 -0.5
v 1.4375 0 0.5
v 1.4375 0 -0.5
v -1.4375 0.0625 -0.5
v -1.4375 0.0625 0.5
v -1.4375 0 -0.5
v -1.4375 0 0.5
vt 0 1
vt 0.4375 1
vt 0.4375 0.5
vt 0 0.5
vt 0 1
vt 0.4375 1
vt 0.4375 0.5
vt 0 0.5
vt 0 1
vt 0.4375 1
vt 0.4375 0.5
vt 0 0.5
vt 0 1
vt 0.4375 1
vt 0.4375 0.5
vt 0 0.5
vt 0 1
vt 0.4375 1
vt 0.4375 0.5
vt 0 0.5
vt 0 1
vt 0.4375 1
vt 0.4375 0.5
vt 0 0.5
vn 0 0 -1
vn 1 0 0
vn 0 0 1
vn -1 0 0
vn 0 1 0
vn 0 -1 0
usemtl m_a44e9d73-1b54-2297-e78b-a8e9d04e6066
f 4/4/1 7/3/1 5/2/1 2/1/1
f 3/8/2 4/7/2 2/6/2 1/5/2
f 8/12/3 3/11/3 1/10/3 6/9/3
f 7/16/4 8/15/4 6/14/4 5/13/4
f 6/20/5 1/19/5 2/18/5 5/17/5
f 7/24/6 4/23/6 3/22/6 8/21/6
o rail
v 1.3125 0.09375 0.5
v 1.3125 0.09375 -0.5
v 1.3125 0.0625 0.5
v 1.3125 0.0625 -0.5
v -1.3125 0.09375 -0.5
v -1.3125 0.09375 0.5
v -1.3125 0.0625 -0.5
v -1.3125 0.0625 0.5
vt 0.5625 1
vt 1 1
vt 1 0.5
vt 0.5625 0.5
vt 0.5625 1
vt 1 1
vt 1 0.5
vt 0.5625 0.5
vt 0.5625 1
vt 1 1
vt 1 0.5
vt 0.5625 0.5
vt 0.5625 1
vt 1 1
vt 1 0.5
vt 0.5625 0.5
vt 0 1
vt 1 1
vt 1 0.5
vt 0 0.5
vt 0.5625 1
vt 1 1
vt 1 0.5
vt 0.5625 0.5
vn 0 0 -1
vn 1 0 0
vn 0 0 1
vn -1 0 0
vn 0 1 0
vn 0 -1 0
usemtl m_a44e9d73-1b54-2297-e78b-a8e9d04e6066
f 12/28/7 15/27/7 13/26/7 10/25/7
f 11/32/8 12/31/8 10/30/8 9/29/8
f 16/36/9 11/35/9 9/34/9 14/33/9
f 15/40/10 16/39/10 14/38/10 13/37/10
f 14/44/11 9/43/11 10/42/11 13/41/11
f 15/48/12 12/47/12 11/46/12 16/45/12
o rail
v -0.53125 0.1875 0.5
v -0.53125 0.1875 -0.5
v -0.53125 0.09375 0.5
v -0.53125 0.09375 -0.5
v -0.90625 0.1875 -0.5
v -0.90625 0.1875 0.5
v -0.90625 0.09375 -0.5
v -0.90625 0.09375 0.5
vt 0.78125 0.5
vt 1 0.5
vt 1 0
vt 0.78125 0
vt 0.96875 0.5
vt 1 0.5
vt 1 0
vt 0.96875 0
vt 0.78125 0.5
vt 1 0.5
vt 1 0
vt 0.78125 0
vt 0.78125 0.5
vt 0.8125 0.5
vt 0.8125 0
vt 0.78125 0
vt 0.78125 0.5
vt 1 0.5
vt 1 0
vt 0.78125 0
vt 0.78125 0.5
vt 1 0.5
vt 1 0
vt 0.78125 0
vn 0 0 -1
vn 1 0 0
vn 0 0 1
vn -1 0 0
vn 0 1 0
vn 0 -1 0
usemtl m_a44e9d73-1b54-2297-e78b-a8e9d04e6066
f 20/52/13 23/51/13 21/50/13 18/49/13
f 19/56/14 20/55/14 18/54/14 17/53/14
f 24/60/15 19/59/15 17/58/15 22/57/15
f 23/64/16 24/63/16 22/62/16 21/61/16
f 22/68/17 17/67/17 18/66/17 21/65/17
f 23/72/18 20/71/18 19/70/18 24/69/18
o rail
v 0.90625 0.1875 0.5
v 0.90625 0.1875 -0.5
v 0.90625 0.09375 0.5
v 0.90625 0.09375 -0.5
v 0.53125 0.1875 -0.5
v 0.53125 0.1875 0.5
v 0.53125 0.09375 -0.5
v 0.53125 0.09375 0.5
vt 0.78125 0.5
vt 1 0.5
vt 1 0
vt 0.78125 0
vt 0.96875 0.5
vt 1 0.5
vt 1 0
vt 0.96875 0
vt 0.78125 0.5
vt 1 0.5
vt 1 0
vt 0.78125 0
vt 0.78125 0.5
vt 0.8125 0.5
vt 0.8125 0
vt 0.78125 0
vt 0.78125 0.5
vt 1 0.5
vt 1 0
vt 0.78125 0
vt 0.78125 0.5
vt 1 0.5
vt 1 0
vt 0.78125 0
vn 0 0 -1
vn 1 0 0
vn 0 0 1
vn -1 0 0
vn 0 1 0
vn 0 -1 0
usemtl m_a44e9d73-1b54-2297-e78b-a8e9d04e6066
f 28/76/19 31/75/19 29/74/19 26/73/19
f 27/80/20 28/79/20 26/78/20 25/77/20
f 32/84/21 27/83/21 25/82/21 30/81/21
f 31/88/22 32/87/22 30/86/22 29/85/22
f 30/92/23 25/91/23 26/90/23 29/89/23
f 31/96/24 28/95/24 27/94/24 32/93/24
o rail
v 0.09375 0.171875 0.5
v 0.09375 0.171875 -0.5
v 0.09375 0.09375 0.5
v 0.09375 0.09375 -0.5
v -0.09375 0.171875 -0.5
v -0.09375 0.171875 0.5
v -0.09375 0.09375 -0.5
v -0.09375 0.09375 0.5
vt 0.03125 0.5
vt 0.15625 0.5
vt 0.15625 0
vt 0.03125 0
vt 0.15625 0
vt 0.15625 0.5
vt 0.1875 0.5
vt 0.1875 0
vt 0.03125 0.5
vt 0.15625 0.5
vt 0.15625 0
vt 0.03125 0
vt 0 0.5
vt 0 0
vt 0.03125 0
vt 0.03125 0.5
vt 0 0.5
vt 0.1875 0.5
vt 0.1875 0
vt 0 0
vt 0 0.5
vt 0.1875 0.5
vt 0.1875 0
vt 0 0
vn 0 0 -1
vn 1 0 0
vn 0 0 1
vn -1 0 0
vn 0 1 0
vn 0 -1 0
usemtl m_a44e9d73-1b54-2297-e78b-a8e9d04e6066
f 36/100/25 39/99/25 37/98/25 34/97/25
f 35/104/26 36/103/26 34/102/26 33/101/26
f 40/108/27 35/107/27 33/106/27 38/105/27
f 39/112/28 40/111/28 38/110/28 37/109/28
f 38/116/29 33/115/29 34/114/29 37/113/29
f 39/120/30 36/119/30 35/118/30 40/117/30
o rail
v -0.5 0.171875 0.5
v -0.5 0.171875 -0.5
v -0.5 0.09375 0.5
v -0.5 0.09375 -0.5
v -0.9375 0.171875 -0.5
v -0.9375 0.171875 0.5
v -0.9375 0.09375 -0.5
v -0.9375 0.09375 0.5
vt 0.78125 1
vt 1 1
vt 1 0.5
vt 0.78125 0.5
vt 0.96875 1
vt 1 1
vt 1 0.5
vt 0.96875 0.5
vt 0.78125 1
vt 1 1
vt 1 0.5
vt 0.78125 0.5
vt 0.78125 1
vt 0.8125 1
vt 0.8125 0.5
vt 0.78125 0.5
vt 0.78125 1
vt 1 1
vt 1 0.5
vt 0.78125 0.5
vt 0.78125 1
vt 1 1
vt 1 0.5
vt 0.78125 0.5
vn 0 0 -1
vn 1 0 0
vn 0 0 1
vn -1 0 0
vn 0 1 0
vn 0 -1 0
usemtl m_a44e9d73-1b54-2297-e78b-a8e9d04e6066
f 44/124/31 47/123/31 45/122/31 42/121/31
f 43/128/32 44/127/32 42/126/32 41/125/32
f 48/132/33 43/131/33 41/130/33 46/129/33
f 47/136/34 48/135/34 46/134/34 45/133/34
f 46/140/35 41/139/35 42/138/35 45/137/35
f 47/144/36 44/143/36 43/142/36 48/141/36
o rail
v 0.9375 0.171875 0.5
v 0.9375 0.171875 -0.5
v 0.9375 0.09375 0.5
v 0.9375 0.09375 -0.5
v 0.5 0.171875 -0.5
v 0.5 0.171875 0.5
v 0.5 0.09375 -0.5
v 0.5 0.09375 0.5
vt 0.78125 1
vt 1 1
vt 1 0.5
vt 0.78125 0.5
vt 0.96875 1
vt 1 1
vt 1 0.5
vt 0.96875 0.5
vt 0.78125 1
vt 1 1
vt 1 0.5
vt 0.78125 0.5
vt 0.78125 1
vt 0.8125 1
vt 0.8125 0.5
vt 0.78125 0.5
vt 0.78125 1
vt 1 1
vt 1 0.5
vt 0.78125 0.5
vt 0.78125 1
vt 1 1
vt 1 0.5
vt 0.78125 0.5
vn 0 0 -1
vn 1 0 0
vn 0 0 1
vn -1 0 0
vn 0 1 0
vn 0 -1 0
usemtl m_a44e9d73-1b54-2297-e78b-a8e9d04e6066
f 52/148/37 55/147/37 53/146/37 50/145/37
f 51/152/38 52/151/38 50/150/38 49/149/38
f 56/156/39 51/155/39 49/154/39 54/153/39
f 55/160/40 56/159/40 54/158/40 53/157/40
f 54/164/41 49/163/41 50/162/41 53/161/41
f 55/168/42 52/167/42 51/166/42 56/165/42
o rail
v 1.5 0.9375 0.5
v 1.5 0.9375 -0.5
v 1.5 0 0.5
v 1.5 0 -0.5
v 1.4375 0.9375 -0.5
v 1.4375 0.9375 0.5
v 1.4375 0 -0.5
v 1.4375 0 0.5
vt 0.6875 0.5
vt 0.78125 0.5
vt 0.78125 0
vt 0.6875 0
vt 0.6875 0.5
vt 0.78125 0.5
vt 0.78125 0
vt 0.6875 0
vt 0.6875 0.5
vt 0.78125 0.5
vt 0.78125 0
vt 0.6875 0
vt 0.6875 0.5
vt 0.78125 0.5
vt 0.78125 0
vt 0.6875 0
vt 0.6875 0.5
vt 0.78125 0.5
vt 0.78125 0
vt 0.6875 0
vt 0.6875 0.5
vt 0.78125 0.5
vt 0.78125 0
vt 0.6875 0
vn 0 0 -1
vn 1 0 0
vn 0 0 1
vn -1 0 0
vn 0 1 0
vn 0 -1 0
usemtl m_a44e9d73-1b54-2297-e78b-a8e9d04e6066
f 60/172/43 63/171/43 61/170/43 58/169/43
f 59/176/44 60/175/44 58/174/44 57/173/44
f 64/180/45 59/179/45 57/178/45 62/177/45
f 63/184/46 64/183/46 62/182/46 61/181/46
f 62/188/47 57/187/47 58/186/47 61/185/47
f 63/192/48 60/191/48 59/190/48 64/189/48
o rail
v -1.4375 0.9375 0.5
v -1.4375 0.9375 -0.5
v -1.4375 0 0.5
v -1.4375 0 -0.5
v -1.5 0.9375 -0.5
v -1.5 0.9375 0.5
v -1.5 0 -0.5
v -1.5 0 0.5
vt 0.6875 0.5
vt 0.78125 0.5
vt 0.78125 0
vt 0.6875 0
vt 0.6875 0.5
vt 0.78125 0.5
vt 0.78125 0
vt 0.6875 0
vt 0.6875 0.5
vt 0.78125 0.5
vt 0.78125 0
vt 0.6875 0
vt 0.6875 0.5
vt 0.78125 0.5
vt 0.78125 0
vt 0.6875 0
vt 0.6875 0.5
vt 0.78125 0.5
vt 0.78125 0
vt 0.6875 0
vt 0.6875 0.5
vt 0.78125 0.5
vt 0.78125 0
vt 0.6875 0
vn 0 0 -1
vn 1 0 0
vn 0 0 1
vn -1 0 0
vn 0 1 0
vn 0 -1 0
usemtl m_a44e9d73-1b54-2297-e78b-a8e9d04e6066
f 68/196/49 71/195/49 69/194/49 66/193/49
f 67/200/50 68/199/50 66/198/50 65/197/50
f 72/204/51 67/203/51 65/202/51 70/201/51
f 71/208/52 72/207/52 70/206/52 69/205/52
f 70/212/53 65/211/53 66/210/53 69/209/53
f 71/216/54 68/215/54 67/214/54 72/213/54
o rail
v -1.0499999999999994 0.53125 0.0625
v -1.0499999999999994 0.53125 -0.0625
v -1.0499999999999994 0.0625 0.0625
v -1.0499999999999994 0.0625 -0.0625
v -1.1749999999999994 0.53125 -0.0625
v -1.1749999999999994 0.53125 0.0625
v -1.1749999999999994 0.0625 -0.0625
v -1.1749999999999994 0.0625 0.0625
vt 0.78125 0
vt 0.6875 0
vt 0.6875 0.5
vt 0.78125 0.5
vt 0.78125 0
vt 0.6875 0
vt 0.6875 0.5
vt 0.78125 0.5
vt 0.78125 0
vt 0.6875 0
vt 0.6875 0.5
vt 0.78125 0.5
vt 0.78125 0
vt 0.6875 0
vt 0.6875 0.5
vt 0.78125 0.5
vt 0.78125 0
vt 0.6875 0
vt 0.6875 0.5
vt 0.78125 0.5
vt 0.78125 0
vt 0.6875 0
vt 0.6875 0.5
vt 0.78125 0.5
vn 0 0 -1
vn 1 0 0
vn 0 0 1
vn -1 0 0
vn 0 1 0
vn 0 -1 0
usemtl m_a44e9d73-1b54-2297-e78b-a8e9d04e6066
f 76/220/55 79/219/55 77/218/55 74/217/55
f 75/224/56 76/223/56 74/222/56 73/221/56
f 80/228/57 75/227/57 73/226/57 78/225/57
f 79/232/58 80/231/58 78/230/58 77/229/58
f 78/236/59 73/235/59 74/234/59 77/233/59
f 79/240/60 76/239/60 75/238/60 80/237/60
o rail
v -0.9718749999999985 0.390625 0.5
v -0.9718749999999985 0.390625 -0.5
v -0.9718749999999985 0.3125 0.5
v -0.9718749999999985 0.3125 -0.5
v -1.0499999999999983 0.390625 0.5
v -1.0499999999999983 0.390625 -0.5
v -1.0499999999999983 0.3125 0.5
v -1.0499999999999983 0.3125 -0.5
v -1.0369791666666648 0.384375 -0.5
v -1.0369791666666648 0.31875 -0.5
v -1.0239583333333322 0.38125 -0.5
v -1.0239583333333322 0.321875 -0.5
v -1.0109374999999985 0.38125 -0.5
v -1.0109374999999985 0.321875 -0.5
v -0.9979166666666649 0.38125 -0.5
v -0.9979166666666649 0.321875 -0.5
v -0.984895833333332 0.384375 -0.5
v -0.984895833333332 0.3187499999999999 -0.5
v -1.0369791666666648 0.31875 0.5
v -1.0239583333333322 0.321875 0.5
v -1.0109374999999985 0.321875 0.5
v -0.9979166666666649 0.321875 0.5
v -0.984895833333332 0.3187499999999999 0.5
v -1.0369791666666648 0.384375 0.5
v -1.0239583333333322 0.38125 0.5
v -1.0109374999999985 0.38125 0.5
v -0.9979166666666649 0.38125 0.5
v -0.984895833333332 0.384375 0.5
vt 0.59375 0.5
vt 0.59375 0
vt 0.625 0
vt 0.625 0.5
vt 0.59375 0.5
vt 0.59375 0
vt 0.625 0
vt 0.625 0.5
vt 0.59375 0
vt 0.6093750000000002 0
vt 0.6093750000000002 0.5
vt 0.59375 0.5
vt 0.59375 0
vt 0.6093750000000002 0
vt 0.6093750000000002 0.5
vt 0.59375 0.5
vt 0.59375 0
vt 0.6093750000000002 0
vt 0.6093750000000002 0.5
vt 0.59375 0.5
vt 0.6875 0.5
vt 0.6718749999999998 0.5
vt 0.6718749999999998 0
vt 0.6875 0
vt 0.59375 0
vt 0.6093749999999999 0
vt 0.6093749999999999 0.5
vt 0.59375 0.5
vt 0.6093749999999999 0
vt 0.6249999999999998 0
vt 0.6249999999999998 0.5
vt 0.6093749999999999 0.5
vt 0.6249999999999998 0
vt 0.6406249999999998 0
vt 0.6406249999999998 0.5
vt 0.6249999999999998 0.5
vt 0.6406249999999998 0
vt 0.6562499999999998 0
vt 0.6562499999999998 0.5
vt 0.6406249999999998 0.5
vt 0.6562499999999998 0
vt 0.6718749999999998 0
vt 0.6718749999999998 0.5
vt 0.6562499999999998 0.5
vt 0.6875 0.5
vt 0.6718750000000001 0.5
vt 0.6718750000000001 0
vt 0.6875 0
vt 0.6718750000000001 0.5
vt 0.6562500000000002 0.5
vt 0.6562500000000002 0
vt 0.6718750000000001 0
vt 0.6562500000000002 0.5
vt 0.6406250000000002 0.5
vt 0.6406250000000002 0
vt 0.6562500000000002 0
vt 0.6406250000000002 0.5
vt 0.6250000000000002 0.5
vt 0.6250000000000002 0
vt 0.6406250000000002 0
vt 0.6250000000000002 0.5
vt 0.6093750000000002 0.5
vt 0.6093750000000002 0
vt 0.6250000000000002 0
vt 0.6875 0.5
vt 0.6718750000000001 0.5
vt 0.6718750000000001 0
vt 0.6875 0
vt 0.6718750000000001 0.5
vt 0.6562500000000002 0.5
vt 0.6562500000000002 0
vt 0.6718750000000001 0
vt 0.6562500000000002 0.5
vt 0.6406250000000002 0.5
vt 0.6406250000000002 0
vt 0.6562500000000002 0
vt 0.6406250000000002 0.5
vt 0.6250000000000002 0.5
vt 0.6250000000000002 0
vt 0.6406250000000002 0
vt 0.6250000000000002 0.5
vt 0.6093750000000002 0.5
vt 0.6093750000000002 0
vt 0.6250000000000002 0
vt 0.6875 0.5
vt 0.6718750000000001 0.5
vt 0.6718750000000001 0
vt 0.6875 0
vt 0.6718750000000001 0.5
vt 0.6562500000000002 0.5
vt 0.6562500000000002 0
vt 0.6718750000000001 0
vt 0.6406250000000002 0.5
vt 0.6250000000000002 0.5
vt 0.6250000000000002 0
vt 0.6406250000000002 0
vt 0.6250000000000002 0.5
vt 0.6093750000000002 0.5
vt 0.6093750000000002 0
vt 0.6250000000000002 0
vt 0.6562500000000002 0.5
vt 0.6406250000000002 0.5
vt 0.6406250000000002 0
vt 0.6562500000000002 0
vn 1 0 0
vn -1 0 0
vn -0.4327310675847661 0.9015230574682761 0
vn -0.43273106758476304 -0.9015230574682778 0
vn 0 0 1
vn 0 0 -1
vn 0 0 -1
vn 0 0 -1
vn 0 0 -1
vn 0 0 -1
vn 0 0 -1
vn 0.4327310675847661 -0.9015230574682761 0
vn 0.23337295247533987 -0.9723873019805137 0
vn 0 -1 0
vn 0 -1 0
vn -0.23337295247533815 -0.9723873019805142 0
vn 0 0 1
vn 0 0 1
vn 0 0 1
vn 0 0 1
vn 0 0 1
vn 0.4327310675847661 0.9015230574682761 0
vn 0.23337295247533987 0.9723873019805137 0
vn 0 1 0
vn -0.23337295247533427 0.9723873019805153 0
vn 0 1 0
usemtl m_a44e9d73-1b54-2297-e78b-a8e9d04e6066
f 84/241/61 82/242/61 81/243/61 83/244/61
f 87/245/62 85/246/62 86/247/62 88/248/62
f 82/249/63 97/250/63 108/251/63 81/252/63
f 83/253/64 103/254/64 98/255/64 84/256/64
f 81/257/65 108/258/65 103/259/65 83/260/65
f 84/261/66 98/262/66 97/263/66 82/264/66
f 86/265/67 89/266/67 90/267/67 88/268/67
f 89/269/68 91/270/68 92/271/68 90/272/68
f 91/273/69 93/274/69 94/275/69 92/276/69
f 93/277/70 95/278/70 96/279/70 94/280/70
f 95/281/71 97/282/71 98/283/71 96/284/71
f 88/285/72 90/286/72 99/287/72 87/288/72
f 90/289/73 92/290/73 100/291/73 99/292/73
f 92/293/74 94/294/74 101/295/74 100/296/74
f 94/297/75 96/298/75 102/299/75 101/300/75
f 96/301/76 98/302/76 103/303/76 102/304/76
f 87/305/77 99/306/77 104/307/77 85/308/77
f 99/309/78 100/310/78 105/311/78 104/312/78
f 100/313/79 101/314/79 106/315/79 105/316/79
f 101/317/80 102/318/80 107/319/80 106/320/80
f 102/321/81 103/322/81 108/323/81 107/324/81
f 85/325/82 104/326/82 89/327/82 86/328/82
f 104/329/83 105/330/83 91/331/83 89/332/83
f 106/333/84 107/334/84 95/335/84 93/336/84
f 107/337/85 108/338/85 97/339/85 95/340/85
f 105/341/86 106/342/86 93/343/86 91/344/86
o rail
v 1.1749999999999994 0.53125 0.0625
v 1.1749999999999994 0.53125 -0.0625
v 1.1749999999999994 0.0625 0.0625
v 1.1749999999999994 0.0625 -0.0625
v 1.0499999999999994 0.53125 -0.0625
v 1.0499999999999994 0.53125 0.0625
v 1.0499999999999994 0.0625 -0.0625
v 1.0499999999999994 0.0625 0.0625
vt 0.78125 0
vt 0.6875 0
vt 0.6875 0.5
vt 0.78125 0.5
vt 0.78125 0
vt 0.6875 0
vt 0.6875 0.5
vt 0.78125 0.5
vt 0.78125 0
vt 0.6875 0
vt 0.6875 0.5
vt 0.78125 0.5
vt 0.78125 0
vt 0.6875 0
vt 0.6875 0.5
vt 0.78125 0.5
vt 0.78125 0
vt 0.6875 0
vt 0.6875 0.5
vt 0.78125 0.5
vt 0.78125 0
vt 0.6875 0
vt 0.6875 0.5
vt 0.78125 0.5
vn 0 0 -1
vn 1 0 0
vn 0 0 1
vn -1 0 0
vn 0 1 0
vn 0 -1 0
usemtl m_a44e9d73-1b54-2297-e78b-a8e9d04e6066
f 112/348/87 115/347/87 113/346/87 110/345/87
f 111/352/88 112/351/88 110/350/88 109/349/88
f 116/356/89 111/355/89 109/354/89 114/353/89
f 115/360/90 116/359/90 114/358/90 113/357/90
f 114/364/91 109/363/91 110/362/91 113/361/91
f 115/368/92 112/367/92 111/366/92 116/365/92
o rail
v 1.05 0.390625 0.5
v 1.05 0.390625 -0.5
v 1.05 0.3125 0.5
v 1.05 0.3125 -0.5
v 0.9718750000000006 0.390625 0.5
v 0.9718750000000006 0.390625 -0.5
v 0.9718750000000006 0.3125 0.5
v 0.9718750000000006 0.3125 -0.5
v 0.9848958333333339 0.384375 -0.5
v 0.9848958333333339 0.31875 -0.5
v 0.9979166666666662 0.38125 -0.5
v 0.9979166666666662 0.321875 -0.5
v 1.0109374999999998 0.38125 -0.5
v 1.0109374999999998 0.321875 -0.5
v 1.0239583333333335 0.38125 -0.5
v 1.0239583333333335 0.321875 -0.5
v 1.0369791666666666 0.384375 -0.5
v 1.0369791666666666 0.3187499999999999 -0.5
v 0.9848958333333339 0.31875 0.5
v 0.9979166666666662 0.321875 0.5
v 1.0109374999999998 0.321875 0.5
v 1.0239583333333335 0.321875 0.5
v 1.0369791666666666 0.3187499999999999 0.5
v 0.9848958333333339 0.384375 0.5
v 0.9979166666666662 0.38125 0.5
v 1.0109374999999998 0.38125 0.5
v 1.0239583333333335 0.38125 0.5
v 1.0369791666666666 0.384375 0.5
vt 0.59375 0.5
vt 0.59375 0
vt 0.625 0
vt 0.625 0.5
vt 0.59375 0.5
vt 0.59375 0
vt 0.625 0
vt 0.625 0.5
vt 0.59375 0
vt 0.6093750000000002 0
vt 0.6093750000000002 0.5
vt 0.59375 0.5
vt 0.59375 0
vt 0.6093750000000002 0
vt 0.6093750000000002 0.5
vt 0.59375 0.5
vt 0.59375 0
vt 0.6093750000000002 0
vt 0.6093750000000002 0.5
vt 0.59375 0.5
vt 0.6875 0.5
vt 0.6718749999999998 0.5
vt 0.6718749999999998 0
vt 0.6875 0
vt 0.59375 0
vt 0.6093749999999999 0
vt 0.6093749999999999 0.5
vt 0.59375 0.5
vt 0.6093749999999999 0
vt 0.6249999999999998 0
vt 0.6249999999999998 0.5
vt 0.6093749999999999 0.5
vt 0.6249999999999998 0
vt 0.6406249999999998 0
vt 0.6406249999999998 0.5
vt 0.6249999999999998 0.5
vt 0.6406249999999998 0
vt 0.6562499999999998 0
vt 0.6562499999999998 0.5
vt 0.6406249999999998 0.5
vt 0.6562499999999998 0
vt 0.6718749999999998 0
vt 0.6718749999999998 0.5
vt 0.6562499999999998 0.5
vt 0.6875 0.5
vt 0.6718750000000001 0.5
vt 0.6718750000000001 0
vt 0.6875 0
vt 0.6718750000000001 0.5
vt 0.6562500000000002 0.5
vt 0.6562500000000002 0
vt 0.6718750000000001 0
vt 0.6562500000000002 0.5
vt 0.6406250000000002 0.5
vt 0.6406250000000002 0
vt 0.6562500000000002 0
vt 0.6406250000000002 0.5
vt 0.6250000000000002 0.5
vt 0.6250000000000002 0
vt 0.6406250000000002 0
vt 0.6250000000000002 0.5
vt 0.6093750000000002 0.5
vt 0.6093750000000002 0
vt 0.6250000000000002 0
vt 0.6875 0.5
vt 0.6718750000000001 0.5
vt 0.6718750000000001 0
vt 0.6875 0
vt 0.6718750000000001 0.5
vt 0.6562500000000002 0.5
vt 0.6562500000000002 0
vt 0.6718750000000001 0
vt 0.6562500000000002 0.5
vt 0.6406250000000002 0.5
vt 0.6406250000000002 0
vt 0.6562500000000002 0
vt 0.6406250000000002 0.5
vt 0.6250000000000002 0.5
vt 0.6250000000000002 0
vt 0.6406250000000002 0
vt 0.6250000000000002 0.5
vt 0.6093750000000002 0.5
vt 0.6093750000000002 0
vt 0.6250000000000002 0
vt 0.6875 0.5
vt 0.6718750000000001 0.5
vt 0.6718750000000001 0
vt 0.6875 0
vt 0.6718750000000001 0.5
vt 0.6562500000000002 0.5
vt 0.6562500000000002 0
vt 0.6718750000000001 0
vt 0.6562500000000002 0.5
vt 0.6406250000000002 0.5
vt 0.6406250000000002 0
vt 0.6562500000000002 0
vt 0.6250000000000002 0.5
vt 0.6093750000000002 0.5
vt 0.6093750000000002 0
vt 0.6250000000000002 0
vt 0.6406250000000002 0.5
vt 0.6250000000000002 0.5
vt 0.6250000000000002 0
vt 0.6406250000000002 0
vn 1 0 0
vn -1 0 0
vn -0.4327310675847661 0.9015230574682761 0
vn -0.43273106758476304 -0.9015230574682778 0
vn 0 0 1
vn 0 0 -1
vn 0 0 -1
vn 0 0 -1
vn 0 0 -1
vn 0 0 -1
vn 0 0 -1
vn 0.4327310675847721 -0.9015230574682732 0
vn 0.23337295247534362 -0.9723873019805128 0
vn 0 -1 0
vn 0 -1 0
vn -0.23337295247533632 -0.9723873019805147 0
vn 0 0 1
vn 0 0 1
vn 0 0 1
vn 0 0 1
vn 0 0 1
vn 0.4327310675847721 0.9015230574682732 0
vn 0.23337295247534362 0.9723873019805128 0
vn 0 1 0
vn -0.23337295247533235 0.9723873019805155 0
vn 0 1 0
usemtl m_a44e9d73-1b54-2297-e78b-a8e9d04e6066
f 120/369/93 118/370/93 117/371/93 119/372/93
f 123/373/94 121/374/94 122/375/94 124/376/94
f 118/377/95 133/378/95 144/379/95 117/380/95
f 119/381/96 139/382/96 134/383/96 120/384/96
f 117/385/97 144/386/97 139/387/97 119/388/97
f 120/389/98 134/390/98 133/391/98 118/392/98
f 122/393/99 125/394/99 126/395/99 124/396/99
f 125/397/100 127/398/100 128/399/100 126/400/100
f 127/401/101 129/402/101 130/403/101 128/404/101
f 129/405/102 131/406/102 132/407/102 130/408/102
f 131/409/103 133/410/103 134/411/103 132/412/103
f 124/413/104 126/414/104 135/415/104 123/416/104
f 126/417/105 128/418/105 136/419/105 135/420/105
f 128/421/106 130/422/106 137/423/106 136/424/106
f 130/425/107 132/426/107 138/427/107 137/428/107
f 132/429/108 134/430/108 139/431/108 138/432/108
f 123/433/109 135/434/109 140/435/109 121/436/109
f 135/437/110 136/438/110 141/439/110 140/440/110
f 136/441/111 137/442/111 142/443/111 141/444/111
f 137/445/112 138/446/112 143/447/112 142/448/112
f 138/449/113 139/450/113 144/451/113 143/452/113
f 121/453/114 140/454/114 125/455/114 122/456/114
f 140/457/115 141/458/115 127/459/115 125/460/115
f 141/461/116 142/462/116 129/463/116 127/464/116
f 143/465/117 144/466/117 133/467/117 131/468/117
f 142/469/118 143/470/118 131/471/118 129/472/118